<svg xmlns="http://www.w3.org/2000/svg" viewBox="0 0 40 40" fill="none" color="#176044"><rect width="40" height="40" rx="10" fill="#f5f8f4"/><path d="M31.8 7.9A17 17 0 1 0 36.7 23" stroke="currentColor" stroke-width="1.7" stroke-linecap="round"/><path d="M11 15.2 23.8 10c2.1-.8 3.5.1 4.2 2.2l3.3 10.2c.6 1.9-.2 3.4-2.1 4.2l-12.8 5.2c-2.1.8-3.6-.1-4.2-2.2L8.9 19.4c-.6-1.9.2-3.4 2.1-4.2Z" fill="currentColor" fill-opacity=".09" stroke="currentColor" stroke-width="1.9"/><path d="m12 18 13.3-5.4M15 28l13.3-5.4" stroke="currentColor" stroke-width="1.3" stroke-linecap="round"/><path d="m17 22 5-2" stroke="currentColor" stroke-width="2.2" stroke-linecap="round"/><circle cx="34" cy="10" r="3" fill="currentColor"/></svg>
